#N canvas 113 343 1357 577 10;
#X obj 340 407 s samplerOSC;
#X msg 62 319 sendtyped /sampler/overWrite i \$1;
#X obj 161 125 tgl 20 0 empty empty overwrite -57 6 0 10 -20806 -262144
-262144 0 1;
#X obj 184 125 tgl 20 0 empty empty blend 24 7 0 10 -20806 -262144
-262144 0 1;
#X msg 85 299 sendtyped /sampler/blend i \$1;
#X obj 184 148 tgl 20 0 empty empty record 24 7 0 10 -20806 -262144
-262144 1 1;
#X msg 173 249 sendtyped /sampler/record i \$1;
#X obj 258 148 hradio 20 0 0 6 empty empty recordRate 0 -8 0 10 -233473
-237178 -262144 1;
#X msg 219 218 sendtyped /sampler/recordRate i \$1;
#X msg 444 209 sendtyped /sampler/playbackRate i \$1;
#X msg 497 315 sendtyped /sampler/recordIndex i \$1;
#X obj 543 149 nbx 4 20 -1e+37 1e+37 0 0 empty empty RI -27 7 0 21
-37450 -156992 -157760 1 256 0;
#X obj 528 274 int;
#X obj 750 209 change;
#X obj 718 209 % 50;
#X obj 536 245 abs;
#X obj -115 -114 r reset;
#X msg 54 -75 0;
#X obj 823 107 bng 30 250 50 0 empty empty clear 0 12 0 10 -20594 -262144
-262144;
#X msg 373 278 /sampler/clear;
#X msg 338 349 sendtyped /sampler/drawInput i \$1;
#X obj 381 115 hradio 14 0 0 10 empty empty drawInput 0 -8 0 10 -20806
-237178 -262144 0;
#X msg 345 -109 0;
#X obj 554 76 r setRecordFrame;
#X obj -69 -37 lctl_tog \$1 114 10;
#X obj 53 -37 lctl_tog \$1 115 10;
#X obj 53 -5 lctl_tog \$1 117 10;
#X obj 348 -140 r reset;
#X msg -86 -63 1;
#X obj 924 -2 r buts;
#X obj 924 20 route 17;
#X obj 838 56 route 24;
#X obj 637 -154 lc_but \$1 9;
#X obj 664 -154 lc_but \$1 10;
#X obj 691 -154 lc_but \$1 11;
#X obj 718 -154 lc_but \$1 12;
#X obj 745 -154 lc_but \$1 25;
#X obj 772 -154 lc_but \$1 26;
#X obj 799 -154 lc_but \$1 27;
#X obj 826 -154 lc_but \$1 28;
#X obj 959 -39 lctl_but \$1 116 10;
#X obj 462 58 int;
#X msg 492 32 1;
#X msg 525 32 2;
#X obj 462 9 route 15 18 20 22;
#X msg 557 32 9;
#X msg 462 32 0;
#X obj 813 -198 r reset;
#X obj 809 -40 - 1;
#X obj 809 -18 == 0;
#X obj 497 -43 r buts;
#X obj 497 -21 route 17;
#X obj 766 -40 - 1;
#X obj 766 -18 == 0;
#X msg 567 -85 1;
#X obj 544 -115 r reset;
#X msg 642 -86 1;
#X msg 674 -86 2;
#X msg 703 -87 3;
#X msg 731 -87 4;
#X msg 760 -87 5;
#X msg 789 -86 6;
#X msg 821 -85 7;
#X msg 846 -85 8;
#X obj 884 -85 s setRecordFrame;
#X floatatom 809 4 5 0 0 0 - - -, f 5;
#X floatatom 854 -35 5 0 0 0 - - -, f 5;
#X msg 813 -176 0;
#X obj 24 -180 r presets;
#X obj 24 -158 route overwrite blend record;
#X obj 226 13 r presets;
#X obj 226 35 route recordRate playRate drawInput;
#X obj 705 39 r presets;
#X obj 705 61 route ri clear;
#X obj 385 148 tgl 20 0 empty empty playRate 24 7 0 10 -20806 -262144
-262144 0 1;
#X connect 1 0 0 0;
#X connect 2 0 1 0;
#X connect 3 0 4 0;
#X connect 4 0 0 0;
#X connect 5 0 6 0;
#X connect 6 0 0 0;
#X connect 7 0 8 0;
#X connect 8 0 0 0;
#X connect 9 0 0 0;
#X connect 10 0 0 0;
#X connect 11 0 13 0;
#X connect 11 0 15 0;
#X connect 12 0 10 0;
#X connect 13 0 14 0;
#X connect 14 0 11 0;
#X connect 15 0 12 0;
#X connect 16 0 17 0;
#X connect 16 0 28 0;
#X connect 17 0 25 0;
#X connect 18 0 19 0;
#X connect 19 0 0 0;
#X connect 20 0 0 0;
#X connect 21 0 20 0;
#X connect 22 0 21 0;
#X connect 23 0 11 0;
#X connect 24 0 2 0;
#X connect 25 0 3 0;
#X connect 26 0 5 0;
#X connect 27 0 22 0;
#X connect 28 0 24 0;
#X connect 28 0 26 0;
#X connect 29 0 30 0;
#X connect 30 0 31 0;
#X connect 31 0 18 0;
#X connect 32 1 56 0;
#X connect 33 1 57 0;
#X connect 34 1 58 0;
#X connect 35 1 59 0;
#X connect 36 1 60 0;
#X connect 37 1 61 0;
#X connect 38 0 52 0;
#X connect 38 1 62 0;
#X connect 39 0 48 0;
#X connect 39 0 66 0;
#X connect 39 1 63 0;
#X connect 41 0 21 0;
#X connect 42 0 41 0;
#X connect 43 0 41 0;
#X connect 44 0 46 0;
#X connect 44 1 42 0;
#X connect 44 2 43 0;
#X connect 44 3 45 0;
#X connect 45 0 41 0;
#X connect 46 0 41 0;
#X connect 47 0 67 0;
#X connect 48 0 49 0;
#X connect 49 0 7 0;
#X connect 49 0 65 0;
#X connect 50 0 51 0;
#X connect 51 0 44 0;
#X connect 52 0 53 0;
#X connect 53 0 74 0;
#X connect 55 0 54 0;
#X connect 56 0 64 0;
#X connect 57 0 64 0;
#X connect 58 0 64 0;
#X connect 59 0 64 0;
#X connect 60 0 64 0;
#X connect 61 0 64 0;
#X connect 62 0 64 0;
#X connect 63 0 64 0;
#X connect 67 0 39 0;
#X connect 67 0 38 0;
#X connect 68 0 69 0;
#X connect 69 0 24 0;
#X connect 69 1 25 0;
#X connect 69 2 26 0;
#X connect 70 0 71 0;
#X connect 71 0 7 0;
#X connect 71 1 74 0;
#X connect 71 2 21 0;
#X connect 72 0 73 0;
#X connect 73 0 11 0;
#X connect 73 1 18 0;
#X connect 74 0 9 0;
#X coords 0 -1 1 1 759 74 1 100 100;
