#N canvas 244 428 1357 492 10;
#X obj 62 345 s samplerOSC;
#X msg 62 319 sendtyped /sampler/overWrite i \$1;
#X obj 113 113 tgl 20 0 empty empty overLay/Write 24 7 0 10 -20806
-262144 -262144 1 1;
#X obj 113 138 tgl 20 0 empty empty blend/light 24 7 0 10 -20806 -262144
-262144 0 1;
#X msg 85 299 sendtyped /sampler/blend i \$1;
#X obj 228 113 tgl 20 0 empty empty record 24 7 0 10 -20806 -262144
-262144 0 1;
#X msg 173 249 sendtyped /sampler/record i \$1;
#X obj 227 148 hradio 20 0 0 6 empty empty recordRate 0 -8 0 10 -233473
-237178 -262144 0;
#X msg 219 218 sendtyped /sampler/recordRate i \$1;
#X obj 382 148 hradio 20 0 0 6 empty empty playRate 0 -8 0 10 -58255
-237178 -262144 0;
#X msg 444 209 sendtyped /sampler/playbackRate i \$1;
#X msg 497 315 sendtyped /sampler/recordIndex i \$1;
#X obj 543 149 nbx 4 20 -1e+37 1e+37 0 0 empty empty RI -27 7 0 21
-37450 -156992 -157760 42 256 0;
#X obj 528 274 int;
#X obj 628 53 change;
#X obj 511 48 % 50;
#X obj 536 245 abs;
#X obj 69 2 r reset;
#X msg 21 40 0;
#X msg 171 51 1;
#X obj 578 114 bng 30 250 50 0 empty empty clear 0 12 0 10 -20594 -262144
-262144;
#X msg 373 278 /sampler/clear;
#X msg 338 349 sendtyped /sampler/drawInput i \$1;
#X obj 354 113 hradio 14 0 0 10 empty empty drawInput 0 -8 0 10 -20806
-237178 -262144 1;
#X msg 312 50 0;
#X obj 696 99 r setRecordFrame;
#X connect 1 0 0 0;
#X connect 2 0 1 0;
#X connect 3 0 4 0;
#X connect 4 0 0 0;
#X connect 5 0 6 0;
#X connect 6 0 0 0;
#X connect 7 0 8 0;
#X connect 8 0 0 0;
#X connect 9 0 10 0;
#X connect 10 0 0 0;
#X connect 11 0 0 0;
#X connect 12 0 14 0;
#X connect 12 0 16 0;
#X connect 13 0 11 0;
#X connect 14 0 15 0;
#X connect 15 0 12 0;
#X connect 16 0 13 0;
#X connect 17 0 18 0;
#X connect 17 0 19 0;
#X connect 17 0 24 0;
#X connect 18 0 3 0;
#X connect 19 0 2 0;
#X connect 19 0 5 0;
#X connect 19 0 7 0;
#X connect 19 0 9 0;
#X connect 20 0 21 0;
#X connect 21 0 0 0;
#X connect 22 0 0 0;
#X connect 23 0 22 0;
#X connect 24 0 23 0;
#X connect 25 0 12 0;
#X coords 0 -1 1 1 532 73 2 100 100;
