#N canvas 299 322 602 544 10;
#X obj 101 -19 route \$1;
#X obj 101 3 route \$2;
#X obj 101 -41 r buts;
#X obj 101 101 tgl 20 0 empty empty empty 17 7 0 10 -83269 -162280
-1 0 1;
#X obj 101 76 t b;
#X obj -17 344 pack f \$1 \$2;
#X obj -17 388 s nout;
#X msg -17 366 \$2 \$3 \$1;
#X obj -45 197 sel 0 1;
#X obj 101 123 bng 20 250 50 0 empty empty empty 17 7 0 10 -83269 -1
-1;
#X obj 448 143 outlet;
#X obj -17 223 int 3;
#X obj 210 -44 route \$1;
#X msg -45 223 0;
#X obj 101 41 spigot;
#X obj 154 41 spigot;
#X obj 154 76 t b;
#X obj 210 -1 != 0;
#X obj 210 24 == 0;
#X obj 210 -66 r ctls;
#X obj 210 -22 route 116;
#X obj 38 236 sel 0 1;
#X obj 298 57 inlet;
#X text 338 56 over ride;
#X obj -17 268 int;
#X obj 18 285 - 2;
#X obj 3 307 int;
#X obj 137 301 int;
#X obj 68 154 t f;
#X msg 100 322 3;
#X text 253 -67 "shift";
#X obj 404 59 inlet;
#X text 444 58 solo mode;
#X msg 180 357 1;
#X obj 138 357 int 2;
#X obj 229 317 + 2;
#X obj 145 439 outlet;
#X obj 137 411 int;
#X obj 140 322 sel 0 1;
#X msg 306 -18 0;
#X obj 306 -44 loadbang;
#X connect 0 0 1 0;
#X connect 1 0 14 0;
#X connect 1 0 15 0;
#X connect 2 0 0 0;
#X connect 3 0 28 0;
#X connect 4 0 3 0;
#X connect 5 0 7 0;
#X connect 7 0 6 0;
#X connect 8 0 13 0;
#X connect 8 1 11 0;
#X connect 9 0 10 0;
#X connect 11 0 24 0;
#X connect 12 0 20 0;
#X connect 13 0 24 0;
#X connect 14 0 4 0;
#X connect 15 0 16 0;
#X connect 16 0 9 0;
#X connect 17 0 18 0;
#X connect 17 0 14 1;
#X connect 18 0 15 1;
#X connect 19 0 12 0;
#X connect 20 0 17 0;
#X connect 21 0 24 0;
#X connect 21 0 27 0;
#X connect 21 1 26 0;
#X connect 21 1 29 0;
#X connect 22 0 21 0;
#X connect 24 0 25 0;
#X connect 24 0 5 0;
#X connect 25 0 26 1;
#X connect 26 0 5 0;
#X connect 27 0 38 0;
#X connect 28 0 8 0;
#X connect 28 0 27 0;
#X connect 29 0 37 0;
#X connect 31 0 35 0;
#X connect 33 0 37 0;
#X connect 34 0 37 0;
#X connect 35 0 34 1;
#X connect 37 0 36 0;
#X connect 38 0 34 0;
#X connect 38 1 33 0;
#X connect 39 0 17 0;
#X connect 40 0 39 0;
#X coords 0 -1 1 1 22 44 2 100 100;
