#N canvas 471 1322 450 352 10;
#X obj 101 32 route \$1;
#X obj 101 54 route \$2;
#X obj 101 10 r buts;
#X obj 101 101 tgl 20 0 empty empty empty 17 7 0 10 -83269 -162280
-1 0 1;
#X obj 101 76 t b;
#X obj 129 228 pack f \$1 \$2;
#X obj 129 183 int \$3;
#X obj 129 272 s nout;
#X msg 129 250 \$2 \$3 \$1;
#X obj 101 157 sel 0 1;
#X msg 101 183 0;
#X obj 28 37 inlet;
#X obj 26 122 outlet;
#X connect 0 0 1 0;
#X connect 1 0 4 0;
#X connect 2 0 0 0;
#X connect 3 0 9 0;
#X connect 3 0 12 0;
#X connect 4 0 3 0;
#X connect 5 0 8 0;
#X connect 6 0 5 0;
#X connect 8 0 7 0;
#X connect 9 0 10 0;
#X connect 9 1 6 0;
#X connect 10 0 5 0;
#X connect 11 0 3 0;
#X coords 0 -1 1 1 22 22 2 100 100;
