#N canvas 459 1298 450 352 10;
#X obj 101 1 route \$1;
#X obj 101 23 route \$2;
#X obj 129 228 pack f \$1 \$2;
#X obj 129 183 int \$3;
#X msg 129 250 \$2 \$3 \$1;
#X obj 101 157 sel 0 1;
#X msg 101 183 0;
#X obj 101 -21 r ctls;
#X obj 129 271 s cout;
#X obj 48 57 inlet;
#X obj 46 142 outlet;
#X obj 153 123 delay 10;
#X obj 101 101 tgl 20 0 empty empty empty 17 7 0 10 -260097 -1 -1 0
1;
#X obj 101 68 != 0;
#X connect 0 0 1 0;
#X connect 1 0 13 0;
#X connect 2 0 4 0;
#X connect 3 0 2 0;
#X connect 4 0 8 0;
#X connect 5 0 6 0;
#X connect 5 1 3 0;
#X connect 6 0 2 0;
#X connect 7 0 0 0;
#X connect 9 0 13 0;
#X connect 12 0 5 0;
#X connect 12 0 10 0;
#X connect 13 0 12 0;
#X coords 0 -1 1 1 22 22 1 100 100;
