#N canvas 178 97 568 473 10;
#X obj 102 102 tgl 15 0 empty empty empty 17 7 0 10 -258113 -262144
-1 1 1;
#X obj 79 55 inlet;
#X obj 68 136 spigot;
#X obj 72 243 outlet;
#X obj 206 77 inlet;
#X obj 216 144 r solo;
#X obj 68 204 spigot;
#X obj 225 182 == 0;
#X obj 305 101 loadbang;
#X msg 306 141 0;
#X connect 0 0 2 1;
#X connect 1 0 2 0;
#X connect 2 0 6 0;
#X connect 4 0 0 0;
#X connect 5 0 7 0;
#X connect 6 0 3 0;
#X connect 7 0 6 1;
#X connect 8 0 9 0;
#X connect 9 0 7 0;
#X coords 0 -1 1 1 19 19 2 100 100;
