#N canvas 0 1099 1600 834 10;
#X symbolatom 835 766 40 0 0 0 - - -, f 40;
#X obj 277 7 import mrpeach;
#X obj 38 761 udpsend;
#X msg 38 734 connect 127.0.0.1 6666;
#X obj 14 639 packOSC;
#X obj 271 37 udpreceive 6667;
#X obj 271 59 unpackOSC;
#X obj 271 104 s sync;
#X obj 1054 15 hsl 128 15 0 127 0 0 empty empty empty -2 -8 0 10 -262144
-1 -1 0 1;
#X obj 1052 61 / 127;
#X obj 998 85 f;
#X obj 995 28 r sync;
#X obj 995 50 t b;
#X obj 995 109 +;
#X obj 10 -5 midiman;
#X obj 561 27 r sync;
#X obj 14 616 r samplerOSC;
#X obj 193 712 list trim;
#X msg 276 661 set;
#X obj 271 81 route /sampler/sync;
#X obj 176 61 s init;
#X obj 176 25 bng 30 250 50 0 empty empty init 36 11 0 18 -258049 -1
-262144;
#X obj 193 690 list prepend set;
#X obj 89 670 == 0;
#X obj 56 692 spigot;
#X obj 56 670 t b;
#X text 58 299 one shot fill;
#X obj 127 88 s reset;
#X obj 731 161 s intFrame;
#X text 57 313 reverse iteration for;
#X msg 736 140 13 42 24 25;
#X obj 8 219 frame_sampler 2;
#X obj 104 762 tgl 15 0 empty empty empty 17 7 0 10 -262144 -1 -1 1
1;
#X obj 7 130 keying_shader 2;
#X obj 773 576 line;
#X obj 773 598 int;
#X obj 773 620 change;
#X obj 773 644 s intFrame;
#X msg 742 107 0;
#N canvas 345 298 1101 622 keys 0;
#X obj 91 198 s samplerOSC;
#X obj 91 68 route 17;
#X msg 91 172 sendtyped /sampler/shaker f \$1;
#X obj 91 134 + 1;
#X obj 91 46 r buts;
#X obj 91 90 route 0;
#X floatatom 170 105 5 0 0 0 - - -, f 5;
#X msg 611 100 1 2 3 4 5 6 7 8;
#X obj 357 45 route 17;
#X obj 357 23 r buts;
#X msg 357 102 49 25;
#X obj 375 175 s intFrame;
#X msg 203 50 \$1;
#X floatatom 203 72 5 0 0 0 - - -, f 5;
#X msg 326 101 49;
#X obj 357 67 route 23 21 19 17;
#X obj 609 52 route 17;
#X obj 609 30 r buts;
#X obj 602 128 s intFrame;
#X obj 609 74 route 13;
#X msg 406 102 49 39 29 19;
#X msg 446 133 49 39 29 19 9;
#X obj 564 263 print;
#X obj 843 404 list-drip;
#X obj 830 515 list append;
#X obj 911 521 any;
#X msg 902 477 bang;
#X obj 848 546 any;
#X obj 849 570 s intFrame;
#X obj 801 20 route 17;
#X obj 678 178 sel 0;
#X msg 678 200;
#X obj 802 -2 r notes;
#X obj 877 189 route 2 4 5 7 9;
#X obj 807 571 print;
#X obj 819 159 t b a b;
#X obj 838 375 pack f f f f f f;
#X msg 814 310 0;
#X msg 853 297 49;
#X msg 897 296 39;
#X msg 931 300 29;
#X msg 969 299 19;
#X msg 1001 301 9;
#X obj 846 234 sel 0;
#X obj 884 235 sel 0;
#X obj 923 237 sel 0;
#X obj 965 234 sel 0;
#X obj 1006 232 sel 0;
#X msg 844 317 0;
#X msg 878 317 0;
#X msg 921 318 0;
#X msg 960 321 0;
#X msg 994 321 0;
#X obj 843 433 sel 0;
#X obj 811 48 route 2 4 5 7 9;
#X msg 804 78 2 \$1;
#X msg 839 82 4 \$1;
#X msg 873 79 5 \$1;
#X msg 900 79 7 \$1;
#X msg 928 82 9 \$1;
#X obj 765 437 list-accum;
#X obj 759 462 sel 0;
#X obj 709 548 s samplerOSC;
#X msg 706 502 /sampler/frames;
#X obj 91 112 / 20;
#X connect 1 0 5 0;
#X connect 1 0 12 0;
#X connect 2 0 0 0;
#X connect 3 0 2 0;
#X connect 3 0 6 0;
#X connect 4 0 1 0;
#X connect 5 0 64 0;
#X connect 7 0 18 0;
#X connect 8 0 15 0;
#X connect 9 0 8 0;
#X connect 10 0 11 0;
#X connect 12 0 13 0;
#X connect 14 0 11 0;
#X connect 15 0 14 0;
#X connect 15 1 10 0;
#X connect 15 2 20 0;
#X connect 15 3 21 0;
#X connect 16 0 19 0;
#X connect 17 0 16 0;
#X connect 19 0 7 0;
#X connect 20 0 11 0;
#X connect 21 0 11 0;
#X connect 23 0 53 0;
#X connect 23 1 27 0;
#X connect 23 1 26 0;
#X connect 24 0 25 0;
#X connect 24 0 27 1;
#X connect 25 0 24 1;
#X connect 26 0 24 1;
#X connect 27 0 28 0;
#X connect 27 0 34 0;
#X connect 29 0 54 0;
#X connect 30 0 31 0;
#X connect 32 0 29 0;
#X connect 33 0 43 0;
#X connect 33 1 44 0;
#X connect 33 2 45 0;
#X connect 33 3 46 0;
#X connect 33 4 47 0;
#X connect 35 0 37 0;
#X connect 35 1 33 0;
#X connect 36 0 23 0;
#X connect 37 0 36 0;
#X connect 38 0 36 1;
#X connect 39 0 36 2;
#X connect 40 0 36 3;
#X connect 41 0 36 4;
#X connect 42 0 36 5;
#X connect 43 0 48 0;
#X connect 43 1 38 0;
#X connect 44 0 49 0;
#X connect 44 1 39 0;
#X connect 45 0 50 0;
#X connect 45 1 40 0;
#X connect 46 0 51 0;
#X connect 46 1 41 0;
#X connect 47 0 52 0;
#X connect 47 1 42 0;
#X connect 48 0 36 1;
#X connect 49 0 36 2;
#X connect 50 0 36 3;
#X connect 51 0 36 4;
#X connect 52 0 36 5;
#X connect 53 1 24 0;
#X connect 54 0 55 0;
#X connect 54 1 56 0;
#X connect 54 2 57 0;
#X connect 54 3 58 0;
#X connect 54 4 59 0;
#X connect 55 0 35 0;
#X connect 56 0 35 0;
#X connect 57 0 35 0;
#X connect 58 0 35 0;
#X connect 59 0 35 0;
#X connect 60 0 61 0;
#X connect 61 0 63 0;
#X connect 63 0 62 0;
#X connect 64 0 3 0;
#X restore 21 380 pd keys;
#X obj 561 49 % 50;
#X floatatom 561 71 5 0 0 0 - - -, f 5;
#N canvas 900 551 581 412 frameManagement 0;
#X obj 241 16 r ctls;
#X obj 66 228 s floats, f 10;
#X obj 69 94 r intFrame;
#X obj 62 203 list-apply / 50;
#X obj 241 61 route 41;
#X obj 62 182 list-apply + 0;
#X obj 62 141 any;
#X obj 175 30 r sync;
#X obj 175 52 % 2;
#X obj 175 103 sel 0;
#X obj 175 125 t b b;
#X obj 202 147 random;
#X obj 197 206 int;
#X obj 244 124 / 2;
#X obj 175 74 spigot;
#X obj 342 83 list prepend /sampler/frames;
#X obj 342 105 list trim;
#X obj 342 61 r floats;
#X obj 342 127 s samplerOSC;
#X obj 243 36 route 2;
#X obj 227 182 -;
#X obj 273 203 / 2;
#X floatatom 202 254 5 0 0 0 - - -, f 5;
#X obj 400 191 r presets;
#X obj 400 213 route frames;
#X obj 415 256 s intFrame;
#X connect 0 0 19 0;
#X connect 2 0 6 0;
#X connect 3 0 1 0;
#X connect 4 0 13 0;
#X connect 4 0 14 1;
#X connect 5 0 3 0;
#X connect 6 0 5 0;
#X connect 7 0 8 0;
#X connect 8 0 14 0;
#X connect 9 0 10 0;
#X connect 10 0 6 0;
#X connect 10 1 11 0;
#X connect 11 0 20 0;
#X connect 12 0 5 2;
#X connect 12 0 22 0;
#X connect 13 0 11 1;
#X connect 13 0 21 0;
#X connect 14 0 9 0;
#X connect 15 0 16 0;
#X connect 16 0 18 0;
#X connect 17 0 15 0;
#X connect 19 0 4 0;
#X connect 20 0 12 0;
#X connect 21 0 20 1;
#X connect 23 0 24 0;
#X connect 24 0 25 0;
#X restore 17 359 pd frameManagement;
#X obj 410 124 bmsdi_arduino;
#X obj 1100 796 s presets;
#X msg 481 382 freeze;
#X msg 1137 735 sourceMix 69 \, threshold 2 \, mirror 0 \, green 0
\, test 0 \,;
#X msg 1176 706 saturation 0 \, gamma 0 \, gain 0 \, trigger 1 \, reset
1;
#X obj 835 702 r presets;
#X obj 835 724 route message;
#X obj 835 745 symbol;
#X msg 1100 757 overwrite 1 \, blend 1 \, record 1 \, recordRate 1
\, playRate 1 \, drawInput 1 \, ri 1 \, clear 1 \, message pressRec
\, frames 20 40;
#X obj 1121 264 t b;
#X obj 1121 331 s presets;
#X obj 1121 360 t b;
#X obj 1121 427 s presets;
#X msg 1121 388 overwrite 0 \, blend 0 \, record 1 \, recordRate 1
\, playRate 1 \, drawInput 0 \, message pressRec \, frames 49;
#X msg 1121 292 overwrite 1 \, blend 0 \, record 1 \, recordRate 1
\, playRate 1 \, drawInput 0 \, message pressRec \, frames 49;
#X obj 896 317 vradio 30 0 0 4 empty empty presets 0 -8 0 10 -87382
-203890 -262144 0;
#X obj 1123 460 t b;
#X obj 1123 527 s presets;
#X obj 1123 556 t b;
#X obj 1123 623 s presets;
#X text 854 351 preset;
#X text 854 413 preset;
#X floatatom 913 444 5 0 0 0 - - -, f 5;
#X text 854 383 freeze;
#X msg 1123 488 overwrite 0 \, blend 1 \, record 1 \, recordRate 0
\, playRate 1 \, drawInput 0 \, message pressRec \, frames 1 2 3 4
5 6;
#X obj 961 325 sel 0 1 2 3;
#X text 854 321 simple;
#X msg 1123 584 overwrite 0 \, blend 0 \, record 1 \, recordRate 1
\, playRate 1 \, drawInput 0 \, message pressRec \, frames 49 29 19
;
#X obj 538 608 pack f f f f f;
#X obj 518 501 hsl 128 15 0 127 0 0 empty empty empty -2 -8 0 10 -262144
-1 -1 0 1;
#X obj 518 553 / 127;
#X obj 519 578 * 10;
#X obj 561 578 * 20;
#X obj 598 577 * 30;
#X obj 630 579 * 40;
#X obj 661 576 * 50;
#X obj 538 693 s intFrame;
#X text 561 546 accordeon;
#X text 911 517 reverse;
#X obj 538 629 list-apply - 50;
#X obj 538 651 list-apply abs;
#X obj 530 410 r ctls;
#X obj 530 432 route 2;
#X obj 530 454 route 42;
#X obj 539 672 list-rev;
#X msg 207 764 sendtyped /sampler/playbackRate i 1;
#X obj 753 443 r notes;
#X obj 753 465 route 17;
#X obj 753 487 route 1;
#X obj 753 509 sel 0;
#X msg 773 555 50 \, 0 800;
#X obj 355 313 r ctls;
#X connect 2 0 23 0;
#X connect 2 0 32 0;
#X connect 3 0 2 0;
#X connect 4 0 2 0;
#X connect 4 0 25 0;
#X connect 5 0 6 0;
#X connect 6 0 19 0;
#X connect 8 0 9 0;
#X connect 9 0 10 1;
#X connect 10 0 13 0;
#X connect 11 0 12 0;
#X connect 12 0 10 0;
#X connect 15 0 40 0;
#X connect 16 0 4 0;
#X connect 16 0 22 0;
#X connect 17 0 88 0;
#X connect 18 0 22 1;
#X connect 19 0 7 0;
#X connect 21 0 20 0;
#X connect 21 0 27 0;
#X connect 22 0 17 0;
#X connect 23 0 24 1;
#X connect 24 0 3 0;
#X connect 25 0 24 0;
#X connect 30 0 28 0;
#X connect 34 0 35 0;
#X connect 35 0 36 0;
#X connect 36 0 37 0;
#X connect 38 0 28 0;
#X connect 40 0 41 0;
#X connect 46 0 44 0;
#X connect 47 0 44 0;
#X connect 48 0 49 0;
#X connect 49 0 50 0;
#X connect 50 0 0 0;
#X connect 51 0 44 0;
#X connect 52 0 57 0;
#X connect 54 0 56 0;
#X connect 56 0 55 0;
#X connect 57 0 53 0;
#X connect 58 0 65 0;
#X connect 58 0 68 0;
#X connect 59 0 67 0;
#X connect 61 0 70 0;
#X connect 67 0 60 0;
#X connect 68 0 52 0;
#X connect 68 1 54 0;
#X connect 68 2 59 0;
#X connect 68 3 61 0;
#X connect 70 0 62 0;
#X connect 71 0 82 0;
#X connect 72 0 73 0;
#X connect 73 0 74 0;
#X connect 73 0 78 0;
#X connect 73 0 77 0;
#X connect 73 0 76 0;
#X connect 73 0 75 0;
#X connect 74 0 71 0;
#X connect 75 0 71 1;
#X connect 76 0 71 2;
#X connect 77 0 71 3;
#X connect 78 0 71 4;
#X connect 82 0 83 0;
#X connect 83 0 87 0;
#X connect 84 0 85 0;
#X connect 85 0 86 0;
#X connect 86 0 72 0;
#X connect 87 0 79 0;
#X connect 89 0 90 0;
#X connect 90 0 91 0;
#X connect 91 0 92 0;
#X connect 92 1 93 0;
#X connect 93 0 34 0;
