#N canvas 357 1100 1242 814 10;
#X obj 277 7 import mrpeach;
#X obj 156 745 udpsend;
#X msg 156 718 connect 127.0.0.1 6666;
#X obj 132 623 packOSC;
#X obj 49 467 list prepend /sampler/frames;
#X obj 49 489 list trim;
#X obj 271 37 udpreceive 6667;
#X obj 271 59 unpackOSC;
#X obj 271 104 s sync;
#X obj 1054 15 hsl 128 15 0 127 0 0 empty empty empty -2 -8 0 10 -262144
-1 -1 0 1;
#X obj 1052 61 / 127;
#X obj 998 85 f;
#X obj 995 28 r sync;
#X obj 995 50 t b;
#X obj 995 109 +;
#X obj 10 -5 midiman;
#X obj 1127 212 r ctls;
#X obj 1127 234 route 1;
#X obj 1127 256 route 21;
#X obj 49 445 r floats;
#X msg 1135 305 0.99999 \$1;
#X obj 1127 278 / 128;
#X msg 688 111 0.1 0.2 0.3 0.4 0.5 0.6 0.7 0.8 0.9;
#X obj 652 488 s floats, f 10;
#X msg 733 150 0.99999 \$1;
#X obj 1092 761 comport;
#X msg 1126 728 devicename /dev/ttyACM1 9600;
#X obj 1115 661 tgl 15 0 empty empty empty 17 7 0 10 -262144 -1 -1
0 1;
#X obj 1115 681 sel 0 1;
#X msg 1115 703 close;
#X obj 1031 652 r camera;
#X obj 1423 749 s camera;
#X obj 1026 683 speedlim 50;
#X obj 1328 626 vsl 15 128 0 255 0 0 empty empty empty 0 -9 0 10 -262144
-1 -1 0 1;
#X obj 1397 633 int;
#X msg 1461 678 8 8;
#X obj 1038 715 spell;
#X msg 1391 679 2 \$1;
#X obj 484 542 hsl 128 15 0 1 0 0 empty empty empty -2 -8 0 10 -262144
-1 -1 8750 1;
#X obj 782 271 tgl 15 0 empty empty empty 17 7 0 10 -262144 -1 -1 0
1;
#X obj 785 294 metro 500;
#X obj 493 473 sin;
#X obj 493 495 + 1;
#X obj 493 517 / 5;
#X obj 589 63 r sync;
#X msg 484 569 \$1 0.9;
#X obj 49 511 s samplerOSC;
#X obj 132 600 r samplerOSC;
#X obj 766 720 s samplerOSC;
#X msg 742 189 0 0.04 0.2;
#X obj 488 625 spigot;
#X obj 523 593 == 0;
#X msg 617 412 0;
#X obj 583 336 tgl 33 0 empty empty empty 17 7 0 10 -262144 -1 -1 0
1;
#X msg 582 428 0 0.04 0.2;
#X obj 766 590 route 17;
#X msg 766 694 sendtyped /sampler/shaker f \$1;
#X obj 766 656 + 1;
#X obj 766 634 / 10;
#X obj 766 568 r buts;
#X obj 631 228 route 17;
#X obj 631 206 r notes;
#X obj 631 250 route 49;
#X obj 583 374 sel 1 0;
#X obj 311 696 list trim;
#X msg 311 718 sendtyped /sampler/drawInput i 3;
#X msg 394 645 set;
#X obj 599 302 != 0;
#X floatatom 592 87 5 0 0 0 - - -, f 5;
#X obj 271 81 route /sampler/sync;
#X obj 13 147 keying_shader;
#X obj 176 61 s init;
#X obj 176 25 bng 30 250 50 0 empty empty init 36 11 0 18 -258049 -1
-262144;
#X obj 311 674 list prepend set;
#X obj 766 612 route 0;
#X obj 207 654 == 0;
#X obj 174 676 spigot;
#X obj 174 654 t b;
#X obj 15 221 frame_sampler;
#X msg 703 400 0.9;
#X text 58 299 one shot fill;
#X msg 851 339;
#X obj 866 379 % 1;
#X floatatom 888 330 5 0 0 0 - - -, f 5;
#X floatatom 867 419 5 0 0 0 - - -, f 5;
#X obj 785 316 random 100;
#X obj 785 338 / 100;
#X obj 127 88 s reset;
#X obj 962 455 s intFrame;
#X obj 755 425 r intFrame;
#X obj 746 480 list-apply / 50;
#X text 65 344 reverse iteration for;
#X obj 372 523 hsl 128 15 0 1 0 0 empty empty empty -2 -8 0 10 -262144
-1 -1 11350 1;
#X obj 381 498 / 5;
#X msg 395 546 \$1 0.9;
#X obj 963 293 s setRecordFrame;
#X msg 884 219 13;
#X msg 938 217 42;
#X msg 978 220 24;
#X msg 1011 217 25;
#X msg 959 409 13 42 24 25;
#X obj 304 365 lc_frameSampler 2;
#X connect 1 0 75 0;
#X connect 2 0 1 0;
#X connect 3 0 1 0;
#X connect 3 0 77 0;
#X connect 4 0 5 0;
#X connect 5 0 46 0;
#X connect 6 0 7 0;
#X connect 7 0 69 0;
#X connect 9 0 10 0;
#X connect 10 0 11 1;
#X connect 11 0 14 0;
#X connect 12 0 13 0;
#X connect 13 0 11 0;
#X connect 16 0 17 0;
#X connect 17 0 18 0;
#X connect 18 0 21 0;
#X connect 19 0 4 0;
#X connect 21 0 20 0;
#X connect 22 0 23 0;
#X connect 24 0 23 0;
#X connect 26 0 25 0;
#X connect 27 0 28 0;
#X connect 28 0 29 0;
#X connect 28 1 26 0;
#X connect 29 0 25 0;
#X connect 30 0 32 0;
#X connect 32 0 36 0;
#X connect 33 0 34 0;
#X connect 34 0 37 0;
#X connect 35 0 31 0;
#X connect 36 0 25 0;
#X connect 37 0 31 0;
#X connect 38 0 45 0;
#X connect 39 0 40 0;
#X connect 40 0 85 0;
#X connect 41 0 42 0;
#X connect 42 0 43 0;
#X connect 43 0 38 0;
#X connect 44 0 68 0;
#X connect 45 0 50 0;
#X connect 47 0 3 0;
#X connect 47 0 73 0;
#X connect 49 0 23 0;
#X connect 51 0 50 1;
#X connect 52 0 23 0;
#X connect 53 0 63 0;
#X connect 54 0 23 0;
#X connect 55 0 74 0;
#X connect 56 0 48 0;
#X connect 57 0 56 0;
#X connect 58 0 57 0;
#X connect 59 0 55 0;
#X connect 60 0 62 0;
#X connect 61 0 60 0;
#X connect 62 0 67 0;
#X connect 63 0 54 0;
#X connect 63 1 52 0;
#X connect 64 0 65 0;
#X connect 66 0 73 1;
#X connect 67 0 53 0;
#X connect 69 0 8 0;
#X connect 72 0 71 0;
#X connect 72 0 87 0;
#X connect 73 0 64 0;
#X connect 74 0 58 0;
#X connect 75 0 76 1;
#X connect 76 0 2 0;
#X connect 77 0 76 0;
#X connect 79 0 23 0;
#X connect 82 0 84 0;
#X connect 83 0 82 0;
#X connect 85 0 86 0;
#X connect 86 0 23 0;
#X connect 89 0 90 0;
#X connect 90 0 23 0;
#X connect 92 0 94 0;
#X connect 93 0 92 0;
#X connect 94 0 23 0;
#X connect 96 0 95 0;
#X connect 97 0 95 0;
#X connect 98 0 95 0;
#X connect 99 0 95 0;
#X connect 100 0 88 0;
